<svg width="570" height="549" viewBox="0 0 570 549" fill="none" xmlns="http://www.w3.org/2000/svg">
<path d="M200.259 1.96295C210.159 -0.636984 224.359 -0.637617 234.259 1.86236C257.359 7.76241 274.959 24.363 282.859 47.4629C285.459 55.2627 285.558 56.0631 285.458 76.9629C285.258 107.463 282.559 121.963 274.759 133.663C271.159 139.163 268.559 139.863 259.859 137.963C257.059 137.363 254.558 137.063 254.458 137.263C254.179 137.593 291.352 194.553 292.458 195.563C292.458 195.663 309.159 196.963 329.458 198.463C361.258 200.763 366.959 201.363 370.859 203.163C375.159 205.263 381.059 211.863 381.059 214.663C381.06 215.663 382.96 215.963 388.958 215.963H396.859L397.958 210.963C401.458 194.763 413.959 182.763 430.259 179.963C433.959 179.263 441.359 178.963 446.659 179.163C454.758 179.363 456.459 179.763 457.659 181.362C458.759 182.962 459.059 189.663 459.059 218.163C459.059 259.762 459.959 256.963 446.759 256.963C437.659 256.963 436.059 257.763 436.059 262.163C436.063 264.272 460.059 326.363 461.458 327.663C461.659 327.863 465.959 328.663 471.159 329.563C490.559 332.663 509.659 340.562 524.759 351.862C540.959 363.962 557.959 384.463 566.659 402.563C572.359 414.363 570.559 416.963 556.559 416.963H549.159L554.259 423.663C560.759 432.263 565.459 442.163 568.159 452.963C569.959 460.163 570.259 463.263 569.759 474.463C568.859 497.263 561.858 512.462 544.958 528.362C512.858 558.562 460.659 555.163 432.359 521.063C426.359 513.863 418.858 499.363 416.958 491.463C416.258 488.663 415.658 486.363 415.458 486.163C415.358 485.963 411.458 488.762 406.958 492.362C397.058 500.162 386.459 505.963 376.059 509.163C368.659 511.363 367.958 511.363 302.458 511.763L236.259 512.063L217.759 494.463C198.16 475.863 195.059 473.963 195.059 480.362C195.059 485.062 190.559 499.962 187.059 506.862C174.259 532.362 146.759 548.963 117.559 548.963C90.259 548.963 65.7584 535.362 51.4584 512.362C46.1586 503.763 41.3585 491.063 40.4584 482.663L39.7592 476.963H21.559C-1.94094 476.963 -0.441174 478.263 0.358827 458.263C1.95882 419.363 12.1586 382.563 28.9584 355.463C35.0583 345.463 49.1584 330.463 57.9584 324.663L63.3588 321.063L41.9584 320.763C20.9589 320.463 20.4584 320.363 15.4584 317.763C9.65856 314.663 4.65839 309.362 1.95844 303.563C0.258538 299.763 0.0590231 295.762 0.0590224 242.963V186.463L2.45844 181.463C3.75839 178.563 6.8585 174.563 9.45844 172.263C18.0584 164.763 16.6589 164.863 79.6586 165.163C134.859 165.463 135.559 165.463 139.659 167.663C141.858 168.863 144.258 170.562 144.958 171.362C147.058 173.862 147.758 173.263 148.458 168.163C150.758 152.263 157.259 131.963 163.559 121.563C165.459 118.363 167.059 115.463 167.059 115.063C167.058 114.762 165.059 111.762 162.559 108.463C153.659 96.563 148.259 78.3629 149.359 63.9629C151.759 33.8629 171.859 9.46295 200.259 1.96295ZM117.659 476.963C54.8589 476.963 51.059 477.063 51.059 478.663C51.0593 482.664 54.2591 493.663 57.059 499.563C70.759 528.162 103.259 543.663 133.458 535.963C155.558 530.363 173.359 514.163 180.659 493.163C181.959 489.263 183.359 484.063 183.659 481.563L184.359 476.963H117.659ZM476.059 416.963L476.958 419.163C477.459 420.465 482.459 432.464 487.958 445.963C498.658 471.763 499.159 474.063 494.559 476.163C489.759 478.363 488.358 476.062 475.958 445.862L464.259 417.463L459.159 417.163C455.659 416.963 453.859 417.263 453.559 418.163C446.159 439.063 439.859 452.463 431.159 465.463L425.159 474.463L426.559 481.963C428.159 491.263 430.059 496.563 434.559 504.563C451.459 534.763 490.759 546.563 521.859 530.963C544.259 519.663 557.559 499.362 558.759 474.862C559.759 454.763 553.859 438.763 540.059 424.763L532.359 416.963H476.059ZM438.859 190.963C428.059 190.963 422.859 192.863 416.659 198.763C411.959 203.363 409.358 208.963 408.458 217.063C407.458 226.263 406.359 226.963 393.659 226.963C385.459 226.963 382.859 227.263 381.659 228.563C380.759 229.363 380.059 230.463 380.059 230.963C380.059 231.463 378.758 233.363 377.159 235.163L374.259 238.463L395.159 297.963C406.659 330.663 416.059 358.563 416.059 359.963C416.059 361.364 414.658 367.863 412.958 374.362C402.658 414.962 384.359 442.863 362.159 452.163C356.759 454.363 355.558 454.463 321.259 454.763C291.959 454.963 284.958 454.763 279.958 453.563C265.559 449.862 257.159 441.063 253.559 425.763C252.459 421.063 252.059 413.062 252.059 394.862C252.059 381.362 251.558 367.662 250.958 364.362C247.358 344.263 229.559 326.163 209.559 321.963C205.959 321.263 186.458 320.963 149.458 321.163C87.459 321.563 89.1591 321.363 72.2592 329.663C40.6592 345.063 19.459 385.963 12.559 444.563C11.759 451.663 11.059 459.363 11.059 461.663V465.963H204.159L222.559 483.463L240.958 501.063L304.259 500.763C374.459 500.363 370.659 500.663 385.059 493.463C410.659 480.563 431.259 451.663 444.059 410.663C444.859 408.163 446.059 406.562 447.759 405.862C449.163 405.362 472.362 404.963 502.659 404.963C531.449 404.963 555.044 404.663 555.059 404.163C555.059 403.763 553.458 400.763 551.458 397.563C531.658 364.663 501.259 344.363 465.159 339.963C460.459 339.363 455.759 338.662 454.859 338.362C453.759 338.062 448.658 326.362 439.159 302.563C427.059 272.263 425.059 266.363 425.059 261.763C425.059 251.763 431.359 245.963 442.359 245.963H448.059V190.963H438.859ZM178.359 121.063C174.659 120.863 166.258 139.363 161.958 157.563C157.258 177.463 156.859 183.863 156.159 242.463L155.559 298.463L152.859 304.163L150.159 309.963H178.859C211.459 309.963 214.259 310.363 228.059 317.163C242.959 324.463 255.259 339.063 260.659 355.963C262.059 360.463 262.458 367.063 262.958 392.463C263.658 421.963 263.758 423.663 265.958 428.663C268.658 434.763 274.159 440.163 279.659 442.063C282.659 443.163 291.559 443.463 319.059 443.463H354.559L360.159 440.563C378.759 431.263 393.558 406.262 402.958 368.362L405.059 360.163L385.958 305.862C375.459 275.964 366.16 249.566 365.359 247.163C364.559 244.864 363.359 242.964 362.759 242.963C362.059 242.963 342.559 244.363 319.259 246.063C283.259 248.763 276.258 248.963 272.458 247.963C267.659 246.563 264.858 244.362 221.259 206.063C201.159 188.463 198.059 185.362 198.059 182.862C198.059 179.362 201.759 176.563 204.859 177.663C205.959 178.164 213.56 184.263 221.759 191.463C264.959 229.363 271.759 235.263 274.259 236.563C276.759 237.862 282.16 237.663 319.759 234.963C343.359 233.263 363.858 231.363 365.359 230.763C370.059 228.963 372.559 221.562 370.059 216.862C367.759 212.763 364.458 212.163 326.458 209.463C306.159 207.963 288.559 206.463 287.359 205.963C286.159 205.463 283.058 201.763 280.458 197.763C277.858 193.763 267.159 177.663 256.759 161.963L237.759 133.463L208.659 127.263C192.659 123.863 179.059 121.063 178.359 121.063ZM286.259 283.162C288.259 281.163 292.159 281.763 298.958 284.963C313.258 291.763 325.859 303.262 332.359 315.662C338.359 327.162 339.059 331.763 339.059 363.662C339.059 391.661 339.059 391.862 336.859 393.362C333.859 395.462 332.459 395.363 330.059 392.963C328.159 391.063 328.059 389.662 328.059 363.662C328.059 334.163 327.659 331.063 322.359 320.463C318.259 312.263 306.059 301.163 295.559 295.963C290.66 293.463 286.26 290.964 285.859 290.463C284.659 288.863 284.959 284.462 286.259 283.162ZM78.6586 176.263C44.16 176.163 23.6603 176.463 22.059 177.063C18.859 178.363 14.2584 182.663 12.4584 186.163C11.2587 188.364 11.059 198.266 11.059 242.362C11.059 277.762 11.4586 296.763 12.1586 298.663C13.6587 302.663 16.9592 305.963 21.559 308.063C25.259 309.763 29.1593 309.963 77.3588 309.963C133.158 309.963 133.259 309.963 138.859 304.663C144.159 299.763 144.059 301.062 144.059 242.862C144.059 190.163 143.958 188.663 141.958 185.063C140.858 183.063 138.359 180.263 136.359 178.963L132.659 176.463L78.6586 176.263ZM230.958 12.4629C223.259 10.6631 211.559 10.6625 204.259 12.3624C188.659 16.1624 173.659 28.1629 166.559 42.4629C157.359 61.1629 158.758 82.5632 170.458 100.163C176.758 109.763 174.359 108.862 220.559 118.362C243.659 123.162 263.259 127.263 264.059 127.563C266.159 128.162 269.659 120.762 271.559 111.862C273.359 103.662 275.359 78.6632 274.859 71.4629L274.559 66.4629L238.059 61.5626C212.06 58.1627 201.06 56.2632 199.859 55.1631C196.059 51.8632 198.659 45.963 203.859 45.9629C205.359 45.9629 221.359 47.963 239.458 50.4629C257.558 52.9629 272.559 54.7626 272.859 54.5626C273.659 53.7624 270.859 46.4625 267.359 40.0626C260.159 26.9626 245.558 15.9629 230.958 12.4629Z" fill="black"/>
<path d="M200.259 1.96295C210.159 -0.636984 224.359 -0.637617 234.259 1.86236C257.359 7.76241 274.959 24.363 282.859 47.4629C285.459 55.2627 285.558 56.0631 285.458 76.9629C285.258 107.463 282.559 121.963 274.759 133.663C271.159 139.163 268.559 139.863 259.859 137.963C257.059 137.363 254.558 137.063 254.458 137.263C254.179 137.593 291.352 194.553 292.458 195.563C292.458 195.663 309.159 196.963 329.458 198.463C361.258 200.763 366.959 201.363 370.859 203.163C375.159 205.263 381.059 211.863 381.059 214.663C381.06 215.663 382.96 215.963 388.958 215.963H396.859L397.958 210.963C401.458 194.763 413.959 182.763 430.259 179.963C433.959 179.263 441.359 178.963 446.659 179.163C454.758 179.363 456.459 179.763 457.659 181.362C458.759 182.962 459.059 189.663 459.059 218.163C459.059 259.762 459.959 256.963 446.759 256.963C437.659 256.963 436.059 257.763 436.059 262.163C436.063 264.272 460.059 326.363 461.458 327.663C461.659 327.863 465.959 328.663 471.159 329.563C490.559 332.663 509.659 340.562 524.759 351.862C540.959 363.962 557.959 384.463 566.659 402.563C572.359 414.363 570.559 416.963 556.559 416.963H549.159L554.259 423.663C560.759 432.263 565.459 442.163 568.159 452.963C569.959 460.163 570.259 463.263 569.759 474.463C568.859 497.263 561.858 512.462 544.958 528.362C512.858 558.562 460.659 555.163 432.359 521.063C426.359 513.863 418.858 499.363 416.958 491.463C416.258 488.663 415.658 486.363 415.458 486.163C415.358 485.963 411.458 488.762 406.958 492.362C397.058 500.162 386.459 505.963 376.059 509.163C368.659 511.363 367.958 511.363 302.458 511.763L236.259 512.063L217.759 494.463C198.16 475.863 195.059 473.963 195.059 480.362C195.059 485.062 190.559 499.962 187.059 506.862C174.259 532.362 146.759 548.963 117.559 548.963C90.259 548.963 65.7584 535.362 51.4584 512.362C46.1586 503.763 41.3585 491.063 40.4584 482.663L39.7592 476.963H21.559C-1.94094 476.963 -0.441174 478.263 0.358827 458.263C1.95882 419.363 12.1586 382.563 28.9584 355.463C35.0583 345.463 49.1584 330.463 57.9584 324.663L63.3588 321.063L41.9584 320.763C20.9589 320.463 20.4584 320.363 15.4584 317.763C9.65856 314.663 4.65839 309.362 1.95844 303.563C0.258538 299.763 0.0590231 295.762 0.0590224 242.963V186.463L2.45844 181.463C3.75839 178.563 6.8585 174.563 9.45844 172.263C18.0584 164.763 16.6589 164.863 79.6586 165.163C134.859 165.463 135.559 165.463 139.659 167.663C141.858 168.863 144.258 170.562 144.958 171.362C147.058 173.862 147.758 173.263 148.458 168.163C150.758 152.263 157.259 131.963 163.559 121.563C165.459 118.363 167.059 115.463 167.059 115.063C167.058 114.762 165.059 111.762 162.559 108.463C153.659 96.563 148.259 78.3629 149.359 63.9629C151.759 33.8629 171.859 9.46295 200.259 1.96295ZM117.659 476.963C54.8589 476.963 51.059 477.063 51.059 478.663C51.0593 482.664 54.2591 493.663 57.059 499.563C70.759 528.162 103.259 543.663 133.458 535.963C155.558 530.363 173.359 514.163 180.659 493.163C181.959 489.263 183.359 484.063 183.659 481.563L184.359 476.963H117.659ZM476.059 416.963L476.958 419.163C477.459 420.465 482.459 432.464 487.958 445.963C498.658 471.763 499.159 474.063 494.559 476.163C489.759 478.363 488.358 476.062 475.958 445.862L464.259 417.463L459.159 417.163C455.659 416.963 453.859 417.263 453.559 418.163C446.159 439.063 439.859 452.463 431.159 465.463L425.159 474.463L426.559 481.963C428.159 491.263 430.059 496.563 434.559 504.563C451.459 534.763 490.759 546.563 521.859 530.963C544.259 519.663 557.559 499.362 558.759 474.862C559.759 454.763 553.859 438.763 540.059 424.763L532.359 416.963H476.059ZM438.859 190.963C428.059 190.963 422.859 192.863 416.659 198.763C411.959 203.363 409.358 208.963 408.458 217.063C407.458 226.263 406.359 226.963 393.659 226.963C385.459 226.963 382.859 227.263 381.659 228.563C380.759 229.363 380.059 230.463 380.059 230.963C380.059 231.463 378.758 233.363 377.159 235.163L374.259 238.463L395.159 297.963C406.659 330.663 416.059 358.563 416.059 359.963C416.059 361.364 414.658 367.863 412.958 374.362C402.658 414.962 384.359 442.863 362.159 452.163C356.759 454.363 355.558 454.463 321.259 454.763C291.959 454.963 284.958 454.763 279.958 453.563C265.559 449.862 257.159 441.063 253.559 425.763C252.459 421.063 252.059 413.062 252.059 394.862C252.059 381.362 251.558 367.662 250.958 364.362C247.358 344.263 229.559 326.163 209.559 321.963C205.959 321.263 186.458 320.963 149.458 321.163C87.459 321.563 89.1591 321.363 72.2592 329.663C40.6592 345.063 19.459 385.963 12.559 444.563C11.759 451.663 11.059 459.363 11.059 461.663V465.963H204.159L222.559 483.463L240.958 501.063L304.259 500.763C374.459 500.363 370.659 500.663 385.059 493.463C410.659 480.563 431.259 451.663 444.059 410.663C444.859 408.163 446.059 406.562 447.759 405.862C449.163 405.362 472.362 404.963 502.659 404.963C531.449 404.963 555.044 404.663 555.059 404.163C555.059 403.763 553.458 400.763 551.458 397.563C531.658 364.663 501.259 344.363 465.159 339.963C460.459 339.363 455.759 338.662 454.859 338.362C453.759 338.062 448.658 326.362 439.159 302.563C427.059 272.263 425.059 266.363 425.059 261.763C425.059 251.763 431.359 245.963 442.359 245.963H448.059V190.963H438.859ZM178.359 121.063C174.659 120.863 166.258 139.363 161.958 157.563C157.258 177.463 156.859 183.863 156.159 242.463L155.559 298.463L152.859 304.163L150.159 309.963H178.859C211.459 309.963 214.259 310.363 228.059 317.163C242.959 324.463 255.259 339.063 260.659 355.963C262.059 360.463 262.458 367.063 262.958 392.463C263.658 421.963 263.758 423.663 265.958 428.663C268.658 434.763 274.159 440.163 279.659 442.063C282.659 443.163 291.559 443.463 319.059 443.463H354.559L360.159 440.563C378.759 431.263 393.558 406.262 402.958 368.362L405.059 360.163L385.958 305.862C375.459 275.964 366.16 249.566 365.359 247.163C364.559 244.864 363.359 242.964 362.759 242.963C362.059 242.963 342.559 244.363 319.259 246.063C283.259 248.763 276.258 248.963 272.458 247.963C267.659 246.563 264.858 244.362 221.259 206.063C201.159 188.463 198.059 185.362 198.059 182.862C198.059 179.362 201.759 176.563 204.859 177.663C205.959 178.164 213.56 184.263 221.759 191.463C264.959 229.363 271.759 235.263 274.259 236.563C276.759 237.862 282.16 237.663 319.759 234.963C343.359 233.263 363.858 231.363 365.359 230.763C370.059 228.963 372.559 221.562 370.059 216.862C367.759 212.763 364.458 212.163 326.458 209.463C306.159 207.963 288.559 206.463 287.359 205.963C286.159 205.463 283.058 201.763 280.458 197.763C277.858 193.763 267.159 177.663 256.759 161.963L237.759 133.463L208.659 127.263C192.659 123.863 179.059 121.063 178.359 121.063ZM286.259 283.162C288.259 281.163 292.159 281.763 298.958 284.963C313.258 291.763 325.859 303.262 332.359 315.662C338.359 327.162 339.059 331.763 339.059 363.662C339.059 391.661 339.059 391.862 336.859 393.362C333.859 395.462 332.459 395.363 330.059 392.963C328.159 391.063 328.059 389.662 328.059 363.662C328.059 334.163 327.659 331.063 322.359 320.463C318.259 312.263 306.059 301.163 295.559 295.963C290.66 293.463 286.26 290.964 285.859 290.463C284.659 288.863 284.959 284.462 286.259 283.162ZM78.6586 176.263C44.16 176.163 23.6603 176.463 22.059 177.063C18.859 178.363 14.2584 182.663 12.4584 186.163C11.2587 188.364 11.059 198.266 11.059 242.362C11.059 277.762 11.4586 296.763 12.1586 298.663C13.6587 302.663 16.9592 305.963 21.559 308.063C25.259 309.763 29.1593 309.963 77.3588 309.963C133.158 309.963 133.259 309.963 138.859 304.663C144.159 299.763 144.059 301.062 144.059 242.862C144.059 190.163 143.958 188.663 141.958 185.063C140.858 183.063 138.359 180.263 136.359 178.963L132.659 176.463L78.6586 176.263ZM230.958 12.4629C223.259 10.6631 211.559 10.6625 204.259 12.3624C188.659 16.1624 173.659 28.1629 166.559 42.4629C157.359 61.1629 158.758 82.5632 170.458 100.163C176.758 109.763 174.359 108.862 220.559 118.362C243.659 123.162 263.259 127.263 264.059 127.563C266.159 128.162 269.659 120.762 271.559 111.862C273.359 103.662 275.359 78.6632 274.859 71.4629L274.559 66.4629L238.059 61.5626C212.06 58.1627 201.06 56.2632 199.859 55.1631C196.059 51.8632 198.659 45.963 203.859 45.9629C205.359 45.9629 221.359 47.963 239.458 50.4629C257.558 52.9629 272.559 54.7626 272.859 54.5626C273.659 53.7624 270.859 46.4625 267.359 40.0626C260.159 26.9626 245.558 15.9629 230.958 12.4629Z" fill="black" fill-opacity="0.2"/>
</svg>
