<svg width="1062" height="1037" viewBox="0 0 1062 1037" fill="none" xmlns="http://www.w3.org/2000/svg">
<path d="M447.123 18.7435C476.578 4.19163 500.062 -0.990105 533.428 0.152697C549.456 0.586014 556.45 1.23699 569.632 4.79918C599.47 12.446 621.798 24.08 645.548 44.1048H645.547C666.723 61.9085 682.269 84.0485 704.702 123.633C746.7 197.379 751.977 205.275 759.03 212.522L759.719 213.224L759.798 213.303L759.875 213.382C767.394 221.083 776.608 226.62 792.071 230.628L793.587 231.012L793.695 231.038L793.802 231.066C798.324 232.215 819.808 236.307 842.139 240.182H842.138C893.907 249.035 916.752 253.816 938.543 261.933L940.651 262.729L940.653 262.73C1014.57 291.077 1061.41 355.396 1061.41 433.241C1061.41 475.601 1048.58 512.367 1022.37 547.628L1022.37 547.629C1013.02 560.318 1001.87 572.703 976.866 599.291L976.862 599.296C931.252 647.781 924.684 660.508 919.945 682.626L919.912 682.782L919.876 682.936C919.127 686.259 918.671 689.274 918.698 701.973L918.709 704.645L918.71 704.669V704.695C918.796 722.214 918.606 722.265 927.485 769.352C933.897 803.17 935.411 815.65 935.411 841.941C935.411 863.598 935.188 868.936 931.982 884.35L931.957 884.469C920.593 938.008 891.144 980.158 845.067 1007.61L845.066 1007.61C814.498 1025.89 775.364 1034.35 739.786 1031.23L739.695 1031.22L739.605 1031.21C700.899 1027.57 672.237 1016.91 618.311 988.979V988.978C577.148 967.697 565.921 963.517 551.805 960.633L551.732 960.619L551.659 960.603C549.428 960.136 543.675 959.59 536.065 959.578C528.7 959.567 522.492 960.061 519.419 960.614C506.357 963.199 485.694 971.459 455.758 988.509L455.735 988.522L455.711 988.536C400.051 1020.11 363.739 1034.2 321.032 1035.91L321.033 1035.91C321.008 1035.91 320.983 1035.91 320.957 1035.91C320.935 1035.91 320.912 1035.92 320.889 1035.92L320.888 1035.92C312.711 1036.27 301.62 1035.93 294.993 1035.31L267.81 1032.74V1030.08C204.138 1013.2 154.292 961.155 140.081 895.045L140.067 894.984L140.054 894.921C136.727 879.118 135.611 866.673 135.611 846.441C135.611 823.905 137.543 804.43 142.368 773.427L142.377 773.365C151.509 715.498 150.545 702.521 144.766 683.957H144.765C142.478 676.754 136.464 664.794 129.94 655.538C129.856 655.429 129.645 655.162 129.268 654.703C128.714 654.029 127.966 653.144 127.01 652.044C125.098 649.843 122.588 647.047 119.583 643.778C113.586 637.251 105.924 629.174 97.7475 620.801H97.7466C81.6523 604.504 64.4251 586.675 59.2934 581.342L59.1635 581.207L59.0356 581.072C28.5824 548.625 11.7927 519.443 3.21628 480.611L3.20847 480.575L3.20066 480.539C0.975122 470.345 0.115948 456.125 0.0112055 443.936C-0.0924515 431.871 0.501954 417.575 2.67917 407.44H2.68015C16.3795 343.601 57.4564 296.618 119.243 271.996C140.881 263.318 160.236 258.738 221.034 246.162L221.055 246.159L221.076 246.154C266.086 236.91 272.416 234.035 282.354 227.627L282.361 227.622L282.368 227.619C293.754 220.286 298.541 216.189 341.394 139.157L341.396 139.153C367.956 91.425 378.876 74.0916 397.437 54.6976C412.446 38.9659 427.402 28.4879 447.121 18.7445L447.123 18.7435ZM293.112 1004.58C293.237 1004.6 293.362 1004.62 293.487 1004.63C293.362 1004.62 293.237 1004.6 293.112 1004.58ZM291.598 1004.37C291.785 1004.4 291.971 1004.43 292.158 1004.45C291.971 1004.43 291.785 1004.4 291.598 1004.37ZM290.224 1004.16C290.4 1004.19 290.576 1004.22 290.752 1004.25C290.576 1004.22 290.4 1004.19 290.224 1004.16ZM288.818 1003.94C289.041 1003.98 289.264 1004.01 289.488 1004.05C289.264 1004.01 289.041 1003.98 288.818 1003.94ZM284.012 1003.06C285.436 1003.34 286.867 1003.61 288.304 1003.85C286.867 1003.61 285.436 1003.34 284.012 1003.06ZM283.26 1002.91C283.412 1002.94 283.564 1002.97 283.716 1003C283.396 1002.93 283.075 1002.87 282.755 1002.8C282.924 1002.83 283.092 1002.87 283.26 1002.91ZM281.832 1002.6C282.045 1002.65 282.259 1002.69 282.472 1002.74C282.149 1002.67 281.827 1002.6 281.504 1002.53C281.613 1002.55 281.722 1002.58 281.832 1002.6ZM280.277 1002.26C280.551 1002.32 280.825 1002.38 281.1 1002.44C280.825 1002.38 280.551 1002.32 280.277 1002.26ZM274.758 1000.88C276.16 1001.26 277.57 1001.62 278.987 1001.96C279.251 1002.02 279.516 1002.08 279.781 1002.14C277.962 1001.72 276.156 1001.26 274.364 1000.77C274.495 1000.8 274.627 1000.84 274.758 1000.88ZM762.178 1001.66C761.226 1001.71 760.275 1001.75 759.325 1001.78L760.751 1001.73C761.227 1001.71 761.702 1001.69 762.178 1001.66ZM266.448 998.354C268.995 999.213 271.574 1000 274.179 1000.72C271.495 999.979 268.841 999.164 266.218 998.275C266.295 998.301 266.371 998.328 266.448 998.354ZM264.206 997.575C264.548 997.696 264.891 997.817 265.234 997.936C264.891 997.817 264.548 997.696 264.206 997.575ZM262.874 997.094C263.051 997.159 263.229 997.223 263.407 997.287C263.229 997.223 263.051 997.159 262.874 997.094ZM259.681 995.881C259.739 995.904 259.797 995.926 259.855 995.949C259.748 995.907 259.641 995.864 259.534 995.822C259.583 995.841 259.632 995.862 259.681 995.881ZM258.209 995.291C258.372 995.357 258.534 995.422 258.697 995.488C258.534 995.422 258.372 995.357 258.209 995.291ZM243.343 988.236C243.468 988.304 243.593 988.371 243.717 988.439C243.593 988.371 243.468 988.304 243.343 988.236ZM242.282 987.651C242.479 987.761 242.677 987.87 242.874 987.979C242.677 987.87 242.479 987.761 242.282 987.651ZM241.584 987.261C241.734 987.345 241.883 987.428 242.033 987.512C241.837 987.402 241.641 987.292 241.446 987.182L241.584 987.261ZM758.704 946.523C757.855 946.529 756.96 946.534 756.013 946.536C755.066 946.539 754.067 946.54 753.01 946.54C751.754 946.547 750.554 946.55 749.404 946.547C750.554 946.55 751.754 946.548 753.01 946.541C755.123 946.541 757.007 946.536 758.704 946.523ZM720.744 943.418C720.935 943.468 721.125 943.518 721.314 943.567C721.125 943.518 720.935 943.468 720.744 943.418ZM719.161 942.998C719.366 943.054 719.57 943.108 719.772 943.162C719.57 943.108 719.366 943.054 719.161 942.998ZM717.558 942.554C717.717 942.599 717.876 942.642 718.033 942.686C717.876 942.642 717.717 942.599 717.558 942.554ZM713.134 941.254C713.511 941.368 713.883 941.481 714.249 941.59C713.883 941.481 713.511 941.368 713.134 941.254ZM711.302 940.695C711.741 940.83 712.173 940.962 712.597 941.091C712.173 940.962 711.741 940.83 711.302 940.695ZM707.611 939.541C708.771 939.908 709.884 940.255 710.953 940.586C709.884 940.255 708.771 939.908 707.611 939.54C707.254 939.429 706.9 939.317 706.547 939.205C706.9 939.317 707.254 939.43 707.611 939.541ZM705.081 938.735C705.428 938.848 705.777 938.961 706.128 939.073C705.777 938.961 705.428 938.848 705.081 938.735ZM703.713 938.286C703.989 938.378 704.266 938.469 704.543 938.56C704.266 938.469 703.989 938.378 703.713 938.286ZM702.042 937.723C702.319 937.818 702.595 937.911 702.872 938.004C702.595 937.911 702.319 937.818 702.042 937.723ZM700.123 937.051C700.669 937.246 701.213 937.437 701.758 937.624C701.213 937.437 700.669 937.246 700.123 937.051ZM697.967 936.268C698.503 936.467 699.036 936.66 699.566 936.851C699.036 936.66 698.503 936.467 697.967 936.268ZM695.712 935.414C696.365 935.667 697.009 935.911 697.649 936.15C697.009 935.911 696.365 935.667 695.712 935.414ZM694.703 935.02C694.998 935.136 695.291 935.252 695.583 935.366C695.291 935.252 694.998 935.136 694.703 935.02ZM688.769 932.578C689.309 932.809 689.841 933.035 690.365 933.255L688.769 932.577C688.229 932.345 687.68 932.107 687.122 931.863L688.769 932.578ZM549.476 930.112H549.477C549.028 930.073 548.572 930.037 548.111 930.003C548.572 930.037 549.027 930.073 549.476 930.112ZM548.059 929.999C547.663 929.97 547.264 929.942 546.86 929.916C547.264 929.943 547.663 929.97 548.059 929.999ZM546.548 929.897C546.112 929.87 545.672 929.843 545.228 929.82C545.672 929.843 546.112 929.869 546.548 929.897ZM529.929 929.669C529.437 929.685 528.948 929.703 528.461 929.722C529.452 929.683 530.454 929.651 531.463 929.628L529.929 929.669ZM538.759 929.602C538.547 929.599 538.335 929.596 538.123 929.593C538.335 929.596 538.547 929.599 538.759 929.602ZM418.81 916.04C415.482 917.906 412.267 919.68 409.156 921.368C406.045 923.055 403.037 924.655 400.124 926.172V926.173C405.951 923.138 412.154 919.773 418.81 916.041C419.991 915.382 421.156 914.734 422.304 914.099C421.156 914.734 419.991 915.381 418.81 916.04ZM666.505 922.16C668.402 923.092 670.203 923.969 671.917 924.798C670.036 923.888 668.052 922.919 665.949 921.884L666.505 922.16ZM550.374 117.179C540.708 114.186 533.928 113.318 524.398 113.887L524.279 113.895L524.159 113.901C504.65 114.909 487.226 122.847 473.722 136.846C464.035 146.908 464.106 145.904 426.109 212.935L426.104 212.944L426.099 212.952C415.213 232.127 402.511 253.868 397.709 261.506L397.645 261.608C383.16 284.447 368.26 302.549 348.352 316.577C328.591 330.5 306.015 338.908 278.666 345.825L278.529 345.86L278.39 345.893C271.138 347.654 249.022 352.803 228.856 357.24L228.854 357.241C175.006 369.083 166.435 372.006 154.528 378.072L154.467 378.103L154.406 378.133C145.156 382.792 132.748 393.407 127.02 401.38C108.051 427.998 108.183 464.426 132.665 497.244C132.77 497.373 133.036 497.695 133.523 498.26C134.201 499.048 135.108 500.073 136.243 501.335C138.51 503.856 141.474 507.075 144.952 510.791C151.897 518.213 160.644 527.353 169.457 536.363C210.876 578.377 226.581 596.867 240.25 624.615L240.901 625.944L240.905 625.953L240.91 625.961C253.296 651.529 258.975 674.362 260.367 702.618L260.488 705.369L260.491 705.449L260.494 705.527C261.29 729.066 259.834 743.903 253.403 787.821C248.813 819.657 248.71 820.11 248.71 842.641V842.77C248.659 854.79 248.707 860.08 248.939 863.428C249.067 865.274 249.195 866.146 249.801 868.489L250.092 869.59L250.1 869.619L250.107 869.648C254.17 884.964 259.879 894.995 268.292 903.699C277.682 913.269 290.619 919.969 304.304 922.192C304.369 922.2 304.457 922.21 304.57 922.222C304.813 922.247 305.138 922.277 305.548 922.306C306.38 922.365 307.43 922.414 308.687 922.443C311.214 922.501 314.22 922.469 317.395 922.34C321.114 922.189 324.535 921.926 327.321 921.625L333.123 920.445C350.167 916.973 369.557 909.258 404.141 889.871L404.165 889.859L404.188 889.845C443.128 868.109 466.701 857.879 496.017 851.274L496.06 851.265L496.103 851.255C508.536 848.492 515.951 848.241 535.71 848.241C554.806 848.241 562.511 848.471 574.24 851.017L575.388 851.271L575.423 851.279L575.459 851.286C600.205 856.91 615.858 863.166 651.888 881.275L655.44 883.065L655.463 883.077C692.365 901.763 702.634 906.4 714.199 910.157L716.538 910.9L716.598 910.918L716.659 910.938C726.319 913.994 730.764 915.146 734.707 915.755C738.597 916.357 743.039 916.59 752.861 916.541L752.936 916.54H753.01C761.785 916.54 764.992 916.437 766.927 916.237C767.877 916.139 768.467 916.065 772.034 915.02C788.617 909.856 800.863 900.584 810.16 886.286C822.477 867.266 826.858 844.777 816.152 783.069V783.068C808.221 737.39 806.923 728.073 806.811 703.679V703.677C806.7 679.225 807.988 668.382 814.253 646.339C821.509 620.722 834.96 595.938 852.887 572.778L852.891 572.772C864.082 558.321 868.922 552.931 898.527 520.735L898.55 520.71L898.573 520.685C922.856 494.394 925.866 490.643 932.215 481.201C943.235 464.783 947.422 451.02 947.509 433.804C947.506 422.242 946.196 415.493 943.128 407.557L943.118 407.531L943.108 407.504C935.19 386.904 917.783 370.494 888.626 361.786L888.388 361.714C878.681 358.727 860.993 354.962 808.523 345.016L808.441 345C779.619 339.454 753.312 333.513 741.643 329.54L741.403 329.458L741.165 329.372C717.795 320.974 694.267 305.791 678.472 287.626V287.625C662.45 269.274 653.183 254.61 623.066 201.93V201.929C611.263 181.506 600.171 162.381 597.793 158.692L597.64 158.453L597.492 158.213C582.512 133.977 567.682 122.626 550.374 117.179ZM641.911 909.841V909.84C640.73 909.243 639.572 908.66 638.438 908.09C638.216 907.979 637.996 907.868 637.776 907.758C639.121 908.434 640.499 909.128 641.911 909.841ZM637.115 907.427C636.068 906.902 635.042 906.388 634.034 905.886C635.042 906.388 636.068 906.902 637.115 907.427ZM632.916 905.329C631.938 904.843 630.978 904.368 630.036 903.903C630.978 904.368 631.938 904.843 632.916 905.329ZM629.434 903.606C628.214 903.005 627.023 902.42 625.86 901.853C627.023 902.42 628.214 903.005 629.434 903.606ZM901.658 882.494C901.328 883.889 900.983 885.273 900.625 886.648C900.806 885.955 900.983 885.26 901.157 884.563L901.658 882.494ZM568.81 880.541C570.45 880.914 572.041 881.288 573.598 881.668C572.041 881.287 570.45 880.913 568.81 880.54C568.254 880.415 567.714 880.298 567.186 880.186L568.81 880.541ZM220.704 875.79C220.831 876.289 220.967 876.804 221.111 877.341V877.34C220.967 876.803 220.831 876.288 220.704 875.789V875.79ZM848.269 873.638C848.362 873.285 848.453 872.931 848.542 872.576C848.453 872.931 848.362 873.285 848.269 873.638ZM849.177 869.916C849.375 869.04 849.564 868.156 849.742 867.263C849.638 867.781 849.532 868.295 849.422 868.807C849.343 869.178 849.26 869.548 849.177 869.916ZM219.147 867.182C219.197 867.717 219.253 868.229 219.314 868.726L219.227 867.968C219.199 867.711 219.172 867.449 219.147 867.181V867.182ZM849.799 866.969C849.896 866.478 849.991 865.984 850.082 865.487C849.991 865.984 849.896 866.478 849.799 866.969ZM851.336 856.822C851.271 857.418 851.202 858.011 851.129 858.6C850.984 859.778 850.825 860.94 850.65 862.088C851.002 859.777 851.294 857.406 851.527 854.969C851.467 855.591 851.404 856.208 851.336 856.822ZM836.83 696.108C836.825 696.504 836.821 696.905 836.818 697.311C836.821 696.905 836.825 696.504 836.83 696.108ZM836.865 693.754C836.858 694.101 836.853 694.452 836.847 694.807C836.853 694.452 836.858 694.101 836.865 693.754ZM836.918 691.477C836.911 691.736 836.906 691.997 836.899 692.26C836.906 691.997 836.911 691.736 836.918 691.477ZM838.717 672.593V672.594C838.797 672.148 838.881 671.701 838.967 671.251V671.25C838.881 671.7 838.797 672.147 838.717 672.593ZM892.232 669.467C892.007 670.333 891.788 671.207 891.576 672.09L891.916 670.706C892.021 670.291 892.125 669.878 892.232 669.467ZM892.627 667.983C892.513 668.404 892.399 668.828 892.288 669.253C892.399 668.828 892.513 668.404 892.627 667.983ZM531 454.996C585.677 454.996 630 499.32 630 553.996C630 608.673 585.677 652.996 531 652.996C476.324 652.996 432 608.673 432 553.996C432.001 499.32 476.324 454.996 531 454.996ZM900.455 647.336C900.269 647.705 900.087 648.074 899.908 648.443C900.087 648.074 900.269 647.705 900.455 647.336ZM159.475 645.893C159.955 646.675 160.43 647.463 160.9 648.258L160.192 647.071C159.954 646.676 159.715 646.284 159.475 645.893ZM215.843 643.147C215.735 642.909 215.624 642.671 215.514 642.433C215.624 642.671 215.734 642.909 215.843 643.147ZM215.133 641.613C215.06 641.456 214.989 641.298 214.915 641.141C214.852 641.009 214.789 640.878 214.726 640.746C214.863 641.036 214.999 641.324 215.133 641.613ZM184.287 595.663C185.031 596.513 185.758 597.349 186.466 598.172C185.757 597.349 185.031 596.512 184.287 595.662V595.663ZM148.01 557.341C149.323 558.672 150.606 559.976 151.862 561.255C150.606 559.976 149.323 558.671 148.01 557.34C146.891 556.196 145.773 555.05 144.66 553.906C145.774 555.051 146.891 556.197 148.01 557.341ZM37.1675 491.323C37.2226 491.491 37.2778 491.66 37.3335 491.828C37.2778 491.66 37.2226 491.491 37.1675 491.323ZM36.8354 490.298C36.8842 490.451 36.9337 490.603 36.9829 490.755C36.7818 490.132 36.5837 489.507 36.3891 488.878L36.8354 490.298ZM32.852 475.663C32.8863 475.813 32.922 475.962 32.9565 476.112C32.8054 475.458 32.656 474.801 32.5102 474.141L32.852 475.663ZM31.0639 464.452C31.1912 465.69 31.3304 466.883 31.48 468.023L31.2641 466.274C31.1949 465.678 31.1276 465.071 31.0639 464.452ZM976.689 447.669C976.712 447.472 976.735 447.274 976.757 447.077C976.735 447.274 976.712 447.472 976.689 447.669ZM976.823 446.481C976.843 446.296 976.862 446.111 976.881 445.925C976.862 446.111 976.843 446.296 976.823 446.481ZM976.941 445.331C976.955 445.184 976.972 445.036 976.986 444.888L977.009 444.624C976.988 444.86 976.964 445.096 976.941 445.331ZM977.157 423.516H977.158H977.157ZM87.3364 415.564C87.2453 415.884 87.1557 416.205 87.0678 416.527C87.1557 416.205 87.2453 415.884 87.3364 415.564ZM87.6977 414.323C87.6068 414.628 87.5171 414.933 87.4292 415.239C87.5172 414.933 87.6068 414.628 87.6977 414.323ZM87.8218 413.905C87.8018 413.971 87.782 414.037 87.7622 414.103C87.8839 413.698 88.0084 413.294 88.1352 412.89L87.8218 413.905ZM101.969 384.85C101.545 385.458 101.129 386.068 100.719 386.682L101.339 385.764C101.547 385.459 101.757 385.155 101.969 384.851V384.85ZM42.7378 380.672C42.5727 381.04 42.409 381.409 42.2466 381.779V381.78C42.4705 381.27 42.6974 380.762 42.9262 380.255C42.8634 380.394 42.8002 380.533 42.7378 380.672ZM43.7446 378.474C43.5089 378.978 43.276 379.484 43.0454 379.992C43.2759 379.484 43.5089 378.978 43.7446 378.474ZM95.31 318.303C93.949 319.23 92.6077 320.173 91.2856 321.133V321.134C92.6077 320.174 93.949 319.231 95.31 318.304V318.303ZM97.3667 316.926C97.1972 317.038 97.0287 317.151 96.8598 317.263C97.3726 316.922 97.8876 316.583 98.4057 316.247L97.3667 316.926ZM113.709 307.409C113.54 307.495 113.371 307.583 113.203 307.67C113.488 307.523 113.774 307.375 114.061 307.229C113.944 307.289 113.827 307.349 113.709 307.409ZM117.171 305.68C116.395 306.058 115.624 306.439 114.857 306.826C114.733 306.888 114.609 306.951 114.485 307.014C115.374 306.564 116.27 306.119 117.171 305.68ZM758.305 303.233C758.454 303.274 758.605 303.314 758.756 303.355C758.605 303.314 758.454 303.274 758.305 303.233ZM755.661 302.491C755.894 302.558 756.132 302.626 756.374 302.695C756.132 302.626 755.894 302.558 755.661 302.491ZM754.426 302.127C754.742 302.222 755.066 302.317 755.4 302.414C755.066 302.317 754.742 302.222 754.426 302.127ZM753.506 301.848C753.764 301.928 754.03 302.008 754.302 302.09C754.03 302.008 753.764 301.928 753.506 301.848ZM129.172 300.338C128.349 300.672 127.53 301.011 126.715 301.354C126.308 301.525 125.902 301.698 125.498 301.871V301.872C127.116 301.178 128.754 300.501 130.411 299.841V299.84C129.997 300.005 129.584 300.171 129.172 300.338ZM752.235 301.449C752.535 301.546 752.847 301.644 753.171 301.745C752.498 301.536 751.877 301.334 751.31 301.141L752.235 301.449ZM746.817 299.424C746.93 299.47 747.044 299.515 747.157 299.56C746.806 299.419 746.455 299.275 746.105 299.13C746.342 299.228 746.579 299.328 746.817 299.424ZM744.544 298.475C744.928 298.639 745.311 298.801 745.695 298.961C745.311 298.801 744.928 298.639 744.544 298.475ZM740.364 296.597C741.614 297.186 742.871 297.755 744.132 298.3C744.215 298.336 744.298 298.37 744.38 298.406C743.036 297.828 741.696 297.224 740.364 296.597ZM739.079 295.983C739.415 296.145 739.751 296.307 740.088 296.467C739.751 296.307 739.415 296.145 739.079 295.983ZM736.181 294.538C737.045 294.983 737.914 295.417 738.786 295.842C737.914 295.418 737.045 294.983 736.181 294.538ZM734.888 293.864C735.247 294.053 735.606 294.241 735.966 294.427C735.606 294.241 735.247 294.053 734.888 293.864ZM733.537 293.141C733.91 293.343 734.284 293.544 734.659 293.743C734.284 293.544 733.91 293.343 733.537 293.141ZM730.861 291.651C731.685 292.122 732.515 292.585 733.35 293.039C732.515 292.585 731.685 292.122 730.861 291.651ZM729.587 290.912C729.88 291.084 730.174 291.255 730.468 291.424C730.174 291.255 729.88 291.084 729.587 290.912ZM728.257 290.121C728.59 290.322 728.923 290.521 729.258 290.719C728.923 290.521 728.59 290.322 728.257 290.121ZM726.794 289.23C727.2 289.481 727.608 289.73 728.017 289.977C727.608 289.73 727.2 289.481 726.794 289.23ZM168.321 288.276C167.463 288.481 166.624 288.685 165.802 288.886C167.558 288.457 169.392 288.018 171.316 287.566L168.321 288.276ZM181.242 285.293C180.055 285.559 178.897 285.82 177.768 286.077L181.242 285.294C182.429 285.029 183.645 284.758 184.892 284.483L181.242 285.293ZM215.174 278.021C212.522 278.574 209.964 279.11 207.497 279.629C209.964 279.11 212.522 278.574 215.174 278.021ZM227.111 275.54C223.492 276.289 220.028 277.008 216.71 277.7C220.028 277.008 223.492 276.29 227.111 275.541V275.54ZM705.925 273.047C706.009 273.13 706.094 273.211 706.178 273.293C705.88 273.002 705.583 272.71 705.291 272.417L705.925 273.047ZM315.415 238.655C315.443 238.622 315.472 238.59 315.5 238.558C315.472 238.59 315.443 238.622 315.415 238.655ZM316.153 237.812C316.181 237.779 316.21 237.746 316.239 237.713C316.21 237.746 316.181 237.779 316.153 237.812ZM736.39 232.249C737.053 232.955 737.723 233.648 738.411 234.341V234.34C737.723 233.647 737.053 232.955 736.39 232.248V232.249ZM732.108 227.326C732.259 227.512 732.408 227.698 732.557 227.88C732.408 227.698 732.259 227.512 732.108 227.326ZM731.405 226.447C731.495 226.562 731.588 226.675 731.678 226.788C731.535 226.609 731.392 226.427 731.248 226.243L731.405 226.447ZM724.732 217.081C724.998 217.484 725.261 217.878 725.519 218.263C725.261 217.878 724.998 217.484 724.732 217.081ZM723.15 214.66C723.567 215.306 723.974 215.931 724.372 216.536C723.974 215.931 723.567 215.306 723.15 214.66ZM344.367 194.913L344.669 194.394C344.731 194.288 344.791 194.181 344.853 194.075C344.69 194.356 344.528 194.635 344.367 194.913ZM345.858 192.331C346.54 191.149 347.234 189.94 347.942 188.704C347.234 189.94 346.54 191.149 345.858 192.331ZM348.924 186.985C349.704 185.619 350.5 184.222 351.312 182.792C350.5 184.222 349.704 185.619 348.924 186.985ZM352.158 181.304C353.258 179.362 354.39 177.361 355.552 175.298C354.39 177.361 353.259 179.362 352.158 181.304ZM448.566 119.775C448.349 120.008 448.136 120.241 447.923 120.473C448.136 120.241 448.349 120.008 448.566 119.775ZM449.809 118.449C449.471 118.806 449.14 119.158 448.815 119.507C449.141 119.158 449.472 118.806 449.81 118.449H449.809ZM575.458 95.1644C575.122 94.9906 574.785 94.8187 574.447 94.6488C574.785 94.8187 575.122 94.9906 575.458 95.1644ZM574.169 94.5111C573.923 94.3884 573.676 94.2665 573.429 94.1459C573.677 94.2665 573.923 94.3884 574.169 94.5111ZM568.883 92.0697L568.725 92.0013C568.608 91.9518 568.491 91.903 568.374 91.8539C568.544 91.9253 568.714 91.9974 568.883 92.0697ZM568.012 91.7025C567.834 91.6284 567.655 91.5559 567.476 91.4828C567.655 91.5559 567.834 91.6284 568.012 91.7025ZM567.212 91.3744C567.024 91.2981 566.836 91.223 566.647 91.1478C566.836 91.223 567.024 91.2981 567.212 91.3744ZM561.712 89.3265L560.516 88.9271C560.418 88.8952 560.32 88.8651 560.222 88.8334C560.721 88.9949 561.218 89.1583 561.712 89.3265ZM588.829 42.9564C588.721 42.9085 588.614 42.8615 588.506 42.8138C588.614 42.8615 588.721 42.9085 588.829 42.9564ZM585.145 41.3744C585.824 41.6548 586.5 41.9394 587.171 42.2289C586.836 42.0842 586.499 41.9406 586.162 41.7982C585.486 41.5132 584.807 41.2333 584.124 40.9574L585.145 41.3744ZM578.918 38.9662L577.857 38.5863C577.562 38.4819 577.265 38.3788 576.968 38.2757C577.622 38.5027 578.273 38.7326 578.918 38.9662ZM571.051 36.3461C573.041 36.9556 574.989 37.5892 576.9 38.2513C576.862 38.2383 576.824 38.2253 576.787 38.2123C576.071 37.9651 575.351 37.7214 574.625 37.4818C573.449 37.0933 572.257 36.7157 571.051 36.3461ZM566.541 35.0267C567.875 35.3993 569.189 35.7816 570.486 36.1742C569.189 35.7815 567.875 35.3993 566.541 35.0267ZM566.44 34.9984C565.759 34.8085 565.073 34.62 564.381 34.4349C565.073 34.6199 565.759 34.8085 566.44 34.9984ZM562.111 33.8412C562.841 34.0279 563.564 34.2168 564.283 34.4086C563.564 34.2167 562.841 34.027 562.111 33.8402C561.471 33.6662 560.854 33.5018 560.255 33.3451C560.854 33.5018 561.471 33.6672 562.111 33.8412ZM848.64 872.185C848.713 871.891 848.785 871.595 848.856 871.299C848.785 871.595 848.713 871.891 848.64 872.185ZM848.92 871.028C848.994 870.719 849.066 870.409 849.136 870.098C849.066 870.409 848.993 870.719 848.92 871.028ZM901.087 646.095C900.873 646.509 900.662 646.923 900.455 647.336C900.662 646.923 900.873 646.509 901.087 646.095Z" fill="black"/>
</svg>
